# xmcd
#
# Track frame offsets:
#	150
#	27897
#	49465
#	68311
#	85909
#	106462
#	122750
#	141230
#	169512
#	191498
#
# Disc length: 2917 seconds
#
# Revision: 0
# Processed by: cddbd v1.5.2PL0 Copyright (c) Steve Scherf et al.
# Submitted via: audiograbber 1.83.01
#
DISCID=820b630a
DTITLE=Simply Red - Symphonica in Rosso CD02
DYEAR=2018
DGENRE=Soul
TTITLE0=Picture book
TTITLE1=Holding back the years
TTITLE2=Stars
TTITLE3=A new flame
TTITLE4=It´s only love
TTITLE5=Sunrise
TTITLE6=Something got me started
TTITLE7=Fairground
TTITLE8=My way
TTITLE9=If you don´t know me by now
EXTD=
EXTT0=
EXTT1=
EXTT2=
EXTT3=
EXTT4=
EXTT5=
EXTT6=
EXTT7=
EXTT8=
EXTT9=
PLAYORDER=
